<?xml version="1.0" standalone="no"?><!DOCTYPE svg PUBLIC "-//W3C//DTD SVG 1.1//EN" "http://www.w3.org/Graphics/SVG/1.1/DTD/svg11.dtd"><svg t="1545211779049" class="icon" style="" viewBox="0 0 1024 1024" version="1.1" xmlns="http://www.w3.org/2000/svg" p-id="8277" xmlns:xlink="http://www.w3.org/1999/xlink" width="200" height="200"><defs><style type="text/css"></style></defs><path d="M512 121.856c-14.336 0-26.112 11.776-26.112 25.6 0 14.336 11.776 25.6 26.112 25.6s26.112-11.776 26.112-25.6-11.776-25.6-26.112-25.6zM170.496 770.56c-0.512 1.024-0.512 3.072-0.512 5.12 0 10.24 7.68 18.432 16.896 18.432h649.216c9.216 0 16.896-8.704 16.896-18.432 0-2.56 0-4.096-0.512-5.12L768 671.744c-6.144-6.144-6.144-13.312-6.144-17.92V486.4c0-139.776-112.128-253.44-249.344-253.44S262.656 346.624 262.656 486.4v167.424c0 5.632-2.56 14.336-6.656 18.432l-85.504 98.304z m263.68 81.408c12.288 30.208 41.984 49.664 77.824 49.664 33.28 0 63.488-19.968 77.312-49.664H434.176z m77.824 107.52c-65.536 0-123.904-45.568-139.264-107.52H187.392c-41.472 0-75.264-34.304-75.264-76.288 0-12.8 2.048-22.528 7.168-31.744v-1.536l4.096-6.144 80.384-95.232V484.864c0-143.872 94.72-265.728 231.936-302.08-5.632-11.776-8.704-24.064-8.704-36.864 0-46.08 37.888-83.456 84.48-83.456s84.48 37.376 84.48 83.456c0 12.8-3.072 25.088-8.704 36.864 135.168 34.304 231.936 159.232 231.936 302.08v156.16l80.384 95.232c2.048 2.048 3.584 4.096 4.096 8.192 3.584 9.216 7.68 19.456 7.68 31.744 0 41.984-33.792 76.288-75.264 76.288h-185.344c-14.848 63.488-70.656 107.008-138.752 107.008z" fill="#ffffff" p-id="8278"></path></svg>